<svg version="1.1" xmlns="http://www.w3.org/2000/svg" xmlns:xlink="http://www.w3.org/1999/xlink" x="0px" y="0px" width="295.2px"
	 height="299.7px" viewBox="0 0 295.2 299.7" style="overflow:visible;enable-background:new 0 0 295.2 299.7;"
	 xml:space="preserve">
<style type="text/css">
	.st0{fill-rule:evenodd;clip-rule:evenodd;fill:#FFFFFF;}
</style>
<defs>
</defs>
<g>
	<path class="st0" d="M82.8,119c-2-4-2-14,5-17c13-6,22-17,19-24l-40-55c-4-11-15-15-26-10c-13,7-22,19-31,29c-15,17-11,53,0,73
		c35,80,83,132,160,172c20,12,55,19,73,5c11-8,24-16,31-29c6-11,3-21-8-27l-52-43c-7-4-18,5-25,17c-4,7-14,6-17,4
		C135.8,196,97.8,156,82.8,119z M215.8,158c-1,12-19,9-18-2c5-34-22-62-55-60c-12,1-13-17-1-18C187.8,75,221.8,113,215.8,158z
		 M294.8,165c-1,12-19,11-19-1c6-84-52-146-136-146c-12,0-12-18,0-18C234.8,0,300.8,71,294.8,165z M254.8,162c-1,11-19,10-18-2
		c5-58-37-104-96-103c-12,1-12-18,0-18C209.8,38,260.8,93,254.8,162z"/>
</g>
</svg>
